# xmcd
#
# Track frame offsets:
#	150
#	12584
#	24714
#	38014
#	48961
#	58807
#	68378
#	78684
#	89662
#	100033
#	110266
#
# Disc length: 1627 seconds
#
# Revision: 2
# Processed by: cddbd v1.5.2PL0 Copyright (c) Steve Scherf et al.
# Submitted via: audiograbber 1.83.01
#
DISCID=8806590b
DTITLE=Barbara Mandrell - Midnight Oil
DYEAR=1973
DGENRE=Country
TTITLE0=Midnight Oil
TTITLE1=Give a Little Take a Little
TTITLE2=Jamestown Ferry
TTITLE3=Show Me
TTITLE4=In the Name of Love
TTITLE5=Tonight My Baby's Coming Home
TTITLE6=Ain't It Good
TTITLE7=Satisfied
TTITLE8=Hold On (To the Love I Got)
TTITLE9=Smile Somebody Loves You
TTITLE10=We're Gonna Hold on
EXTD=
EXTT0=
EXTT1=
EXTT2=
EXTT3=
EXTT4=
EXTT5=
EXTT6=
EXTT7=
EXTT8=
EXTT9=
EXTT10=
PLAYORDER=
